<?xml version="1.0" encoding="utf-8"?>
<!-- Generator: Adobe Illustrator 23.1.1, SVG Export Plug-In . SVG Version: 6.00 Build 0)  -->
<svg version="1.1" id="Layer_1" xmlns="http://www.w3.org/2000/svg" xmlns:xlink="http://www.w3.org/1999/xlink" x="0px" y="0px"
	 viewBox="0 0 765.4 430.3" style="enable-background:new 0 0 765.4 430.3;" xml:space="preserve">
<style type="text/css">
	.st0{opacity:0.71;fill:#A96ADB;enable-background:new    ;}
	.st1{fill:none;stroke:#000000;stroke-miterlimit:10;}
</style>
<g>
	<rect x="-2.1" y="-3.4" class="st0" width="768.2" height="432.8"/>
</g>
<g>
	<g>
		<g>
			<path class="st1" d="M18.8,5.9c0,0,12.7-33.1,19.9-36.9s18.4-4.3,21.4-1.3c0-0.2,2,0.4,10.2-1.1s12.5,0.8,16,7.1
				s8.4,29.4,8.4,37.2S88,32.7,78.9,44.8S59.2,55.6,59.2,55.6s-16.2-1.3-23.5-8.4S19,11.3,18.8,5.9z"/>
			<path class="st1" d="M23.6,5.9c0,0,11.7-22,35.4-25.9c0.2,0.2,20.5-1.1,34.1,28.8c0.2,0-14.5,24-27.5,28.9c0,0-13,4.5-23.8-2.1
				C41.9,35.3,26.8,19.7,23.6,5.9z"/>
			<path class="st1" d="M58.3,32.2c0,0-11.3-1.9-14.5,0c0.2,0-3,2.6-2,3.3S51,40.4,58.3,39C58.5,39,58.3,32.2,58.3,32.2z"/>
			<path class="st1" d="M59.4,31.4l14.3,1.1c0,0-7.8,6.6-14.3,6.4C58.3,39,59.4,31.4,59.4,31.4z"/>
			<path class="st1" d="M42.8-12.3c0,0,7.2,1,6.6-1.9c0.3,0,0.1-3.3-2.6-2c-2.6,1.3-5.2,2.9-5.2,2.9S41.2-11.6,42.8-12.3z"/>
			<path class="st1" d="M59.6-18.9c0,0,2.3,4.6-2.9,5.3c-0.2,0-5.1,1.2-7.3,0.1c-0.1,0.2,0.8-4.1,0.7-4C49.9-17.5,59-20,59-20
				L59.6-18.9z"/>
			<path class="st1" d="M70.1-15.6c0,0,1.3,3.3-5.6,2.6c-7-0.7-4.8-2.4-4.8-3.4s-0.8-3.5,2.1-3.5S69.7-18.4,70.1-15.6z"/>
			<path class="st1" d="M76.6-11.3c0,0-8.6,1.3-6.4-5.8c0.2,0.1,6.6,3.9,7.8,5C79.3-11.1,76.6-11.3,76.6-11.3z"/>
		</g>
		<g>
			<path class="st1" d="M117.7,5.9c0,0,12.7-33.1,19.9-36.9c7.1-3.9,18.4-4.3,21.4-1.3c0-0.2,2,0.4,10.2-1.1
				c8.2-1.5,12.5,0.8,16,7.1c3.5,6.3,8.4,29.4,8.4,37.2s-6.7,21.8-15.8,33.9s-19.7,10.8-19.7,10.8s-16.2-1.3-23.5-8.4
				C127.2,40,117.9,11.3,117.7,5.9z"/>
			<path class="st1" d="M122.5,5.9c0,0,11.7-22,35.4-25.9c0.2,0.2,20.5-1.1,34.1,28.8c0.2,0-14.5,24-27.5,28.9c0,0-13,4.5-23.8-2.1
				C140.8,35.3,125.7,19.7,122.5,5.9z"/>
			<path class="st1" d="M157.2,32.2c0,0-11.3-1.9-14.5,0c0.2,0-3,2.6-2,3.3s9.1,4.9,16.4,3.5C157.4,39,157.2,32.2,157.2,32.2z"/>
			<path class="st1" d="M158.3,31.4l14.3,1.1c0,0-7.8,6.6-14.3,6.4C157.2,39,158.3,31.4,158.3,31.4z"/>
			<path class="st1" d="M141.7-12.3c0,0,7.2,1,6.6-1.9c0.3,0,0.1-3.3-2.6-2c-2.6,1.3-5.2,2.9-5.2,2.9S140.1-11.6,141.7-12.3z"/>
			<path class="st1" d="M158.5-18.9c0,0,2.3,4.6-2.9,5.3c-0.2,0-5.1,1.2-7.3,0.1c-0.1,0.2,0.8-4.1,0.7-4c-0.2,0.1,8.9-2.5,8.9-2.5
				L158.5-18.9z"/>
			<path class="st1" d="M169-15.6c0,0,1.3,3.3-5.6,2.6c-7-0.7-4.8-2.4-4.8-3.4c-0.1-1.1-0.8-3.5,2.1-3.5
				C163.6-20.1,168.6-18.4,169-15.6z"/>
			<path class="st1" d="M175.5-11.3c0,0-8.6,1.3-6.4-5.8c0.2,0.1,6.6,3.9,7.8,5C178.1-11.1,175.5-11.3,175.5-11.3z"/>
		</g>
		<path class="st1" d="M216.6,5.9c0,0,12.7-33.1,19.9-36.9c7.1-3.9,18.4-4.3,21.4-1.3c0-0.2,2,0.4,10.2-1.1s12.5,0.8,16,7.1
			c3.5,6.3,8.4,29.4,8.4,37.2s-6.7,21.8-15.8,33.9S257,55.6,257,55.6s-16.2-1.3-23.5-8.4C226.1,40,216.8,11.3,216.6,5.9z"/>
		<path class="st1" d="M221.3,5.9c0,0,11.7-22,35.4-25.9c0.2,0.2,20.5-1.1,34.1,28.8c0.2,0-14.5,24-27.5,28.9c0,0-13,4.5-23.8-2.1
			C239.6,35.3,224.5,19.7,221.3,5.9z"/>
		<path class="st1" d="M256.1,32.2c0,0-11.3-1.9-14.5,0c0.2,0-3,2.6-2,3.3c1.1,0.7,9.1,4.9,16.4,3.5C256.3,39,256.1,32.2,256.1,32.2
			z"/>
		<path class="st1" d="M257.2,31.4l14.3,1.1c0,0-7.8,6.6-14.3,6.4C256.1,39,257.2,31.4,257.2,31.4z"/>
		<path class="st1" d="M240.5-12.3c0,0,7.2,1,6.6-1.9c0.3,0,0.1-3.3-2.6-2c-2.6,1.3-5.2,2.9-5.2,2.9S238.9-11.6,240.5-12.3z"/>
		<path class="st1" d="M257.4-18.9c0,0,2.3,4.6-2.9,5.3c-0.2,0-5.1,1.2-7.3,0.1c-0.1,0.2,0.8-4.1,0.7-4c-0.2,0.1,8.9-2.5,8.9-2.5
			L257.4-18.9z"/>
		<path class="st1" d="M267.9-15.6c0,0,1.3,3.3-5.6,2.6c-7-0.7-4.8-2.4-4.8-3.4c-0.1-1.1-0.8-3.5,2.1-3.5S267.4-18.4,267.9-15.6z"/>
		<path class="st1" d="M274.3-11.3c0,0-8.6,1.3-6.4-5.8c0.2,0.1,6.6,3.9,7.8,5S274.3-11.3,274.3-11.3z"/>
		<path class="st1" d="M315.4,5.9c0,0,12.7-33.1,19.9-36.9s18.4-4.3,21.4-1.3c0-0.2,2,0.4,10.2-1.1c8.2-1.5,12.5,0.8,16,7.1
			s8.4,29.4,8.4,37.2s-6.7,21.8-15.8,33.9c-9.1,12.1-19.7,10.8-19.7,10.8s-16.2-1.3-23.5-8.4S315.6,11.3,315.4,5.9z"/>
		<path class="st1" d="M320.2,5.9c0,0,11.7-22,35.4-25.9c0.2,0.2,20.5-1.1,34.1,28.8c0.2,0-14.5,24-27.5,28.9c0,0-13,4.5-23.8-2.1
			C338.5,35.3,323.4,19.7,320.2,5.9z"/>
		<path class="st1" d="M354.9,32.2c0,0-11.3-1.9-14.5,0c0.2,0-3,2.6-2,3.3c1.1,0.7,9.1,4.9,16.4,3.5C355.1,39,354.9,32.2,354.9,32.2
			z"/>
		<path class="st1" d="M356,31.4l14.3,1.1c0,0-7.8,6.6-14.3,6.4C354.9,39,356,31.4,356,31.4z"/>
		<path class="st1" d="M339.4-12.3c0,0,7.2,1,6.6-1.9c0.3,0,0.1-3.3-2.6-2s-5.2,2.9-5.2,2.9S337.8-11.6,339.4-12.3z"/>
		<path class="st1" d="M356.2-18.9c0,0,2.3,4.6-2.9,5.3c-0.2,0-5.1,1.2-7.3,0.1c-0.1,0.2,0.8-4.1,0.7-4c-0.2,0.1,8.9-2.5,8.9-2.5
			L356.2-18.9z"/>
		<path class="st1" d="M366.8-15.6c0,0,1.3,3.3-5.6,2.6c-7-0.7-4.8-2.4-4.8-3.4c-0.1-1.1-0.8-3.5,2.1-3.5
			C361.3-20.1,366.3-18.4,366.8-15.6z"/>
		<path class="st1" d="M373.2-11.3c0,0-8.6,1.3-6.4-5.8c0.2,0.1,6.6,3.9,7.8,5S373.2-11.3,373.2-11.3z"/>
		<path class="st1" d="M414.3,5.9c0,0,12.7-33.1,19.9-36.9c7.1-3.9,18.4-4.3,21.4-1.3c0-0.2,2,0.4,10.2-1.1s12.5,0.8,16,7.1
			s8.4,29.4,8.4,37.2s-6.7,21.8-15.8,33.9s-19.7,10.8-19.7,10.8s-16.2-1.3-23.5-8.4S414.5,11.3,414.3,5.9z"/>
		<path class="st1" d="M419,5.9c0,0,11.7-22,35.4-25.9c0.2,0.2,20.5-1.1,34.1,28.8c0.2,0-14.5,24-27.5,28.9c0,0-13,4.5-23.8-2.1
			C437.4,35.3,422.3,19.7,419,5.9z"/>
		<path class="st1" d="M453.8,32.2c0,0-11.3-1.9-14.5,0c0.2,0-3,2.6-2,3.3c1.1,0.7,9.1,4.9,16.4,3.5C454,39,453.8,32.2,453.8,32.2z"
			/>
		<path class="st1" d="M454.9,31.4l14.3,1.1c0,0-7.8,6.6-14.3,6.4C453.8,39,454.9,31.4,454.9,31.4z"/>
		<path class="st1" d="M438.3-12.3c0,0,7.2,1,6.6-1.9c0.3,0,0.1-3.3-2.6-2c-2.6,1.3-5.2,2.9-5.2,2.9S436.7-11.6,438.3-12.3z"/>
		<path class="st1" d="M455.1-18.9c0,0,2.3,4.6-2.9,5.3c-0.2,0-5.1,1.2-7.3,0.1c-0.1,0.2,0.8-4.1,0.7-4c-0.2,0.1,8.9-2.5,8.9-2.5
			L455.1-18.9z"/>
		<path class="st1" d="M465.6-15.6c0,0,1.3,3.3-5.6,2.6c-7-0.7-4.8-2.4-4.8-3.4s-0.8-3.5,2.1-3.5C460.1-20,465.2-18.4,465.6-15.6z"
			/>
		<path class="st1" d="M472.1-11.3c0,0-8.6,1.3-6.4-5.8c0.2,0.1,6.6,3.9,7.8,5C474.8-11.1,472.1-11.3,472.1-11.3z"/>
		<path class="st1" d="M513.2,5.9c0,0,12.7-33.1,19.9-36.9s18.4-4.3,21.4-1.3c0-0.2,2,0.4,10.2-1.1s12.5,0.8,16,7.1
			c3.5,6.3,8.4,29.4,8.4,37.2s-6.7,21.8-15.8,33.9c-9.1,12.1-19.7,10.8-19.7,10.8s-16.2-1.3-23.5-8.4C522.7,40,513.4,11.3,513.2,5.9
			z"/>
		<path class="st1" d="M517.9,5.9c0,0,11.7-22,35.4-25.9c0.2,0.2,20.5-1.1,34.1,28.8c0.2,0-14.5,24-27.5,28.9c0,0-13,4.5-23.8-2.1
			C536.3,35.3,521.1,19.7,517.9,5.9z"/>
		<path class="st1" d="M552.7,32.2c0,0-11.3-1.9-14.5,0c0.2,0-3,2.6-2,3.3c1.1,0.7,9.1,4.9,16.4,3.5C552.9,39,552.7,32.2,552.7,32.2
			z"/>
		<path class="st1" d="M553.8,31.4l14.3,1.1c0,0-7.8,6.6-14.3,6.4C552.7,39,553.8,31.4,553.8,31.4z"/>
		<path class="st1" d="M537.1-12.3c0,0,7.2,1,6.6-1.9c0.3,0,0.1-3.3-2.6-2c-2.6,1.3-5.2,2.9-5.2,2.9S535.6-11.6,537.1-12.3z"/>
		<path class="st1" d="M554-18.9c0,0,2.3,4.6-2.9,5.3c-0.2,0-5.1,1.2-7.3,0.1c-0.1,0.2,0.8-4.1,0.7-4c-0.2,0.1,8.9-2.5,8.9-2.5
			L554-18.9z"/>
		<path class="st1" d="M564.5-15.6c0,0,1.3,3.3-5.6,2.6c-7-0.7-4.8-2.4-4.8-3.4c-0.1-1.1-0.8-3.5,2.1-3.5
			C559-20,564-18.4,564.5-15.6z"/>
		<path class="st1" d="M571-11.3c0,0-8.6,1.3-6.4-5.8c0.2,0.1,6.6,3.9,7.8,5C573.6-11.1,571-11.3,571-11.3z"/>
		<path class="st1" d="M612.3,5.9c0,0,12.7-33.1,19.9-36.9s18.4-4.3,21.4-1.3c0-0.2,2,0.4,10.2-1.1s12.5,0.8,16,7.1
			s8.4,29.4,8.4,37.2s-6.7,21.8-15.8,33.9s-19.7,10.8-19.7,10.8s-16.2-1.3-23.5-8.4C621.8,40,612.5,11.3,612.3,5.9z"/>
		<path class="st1" d="M617,5.9c0,0,11.7-22,35.4-25.9c0.2,0.2,20.5-1.1,34.1,28.8c0.2,0-14.5,24-27.5,28.9c0,0-13,4.5-23.8-2.1
			C635.3,35.3,620.2,19.7,617,5.9z"/>
		<path class="st1" d="M651.8,32.2c0,0-11.3-1.9-14.5,0c0.2,0-3,2.6-2,3.3c1.1,0.7,9.1,4.9,16.4,3.5C652,39,651.8,32.2,651.8,32.2z"
			/>
		<path class="st1" d="M652.9,31.4l14.3,1.1c0,0-7.8,6.6-14.3,6.4C651.8,39,652.9,31.4,652.9,31.4z"/>
		<path class="st1" d="M636.2-12.3c0,0,7.2,1,6.6-1.9c0.3,0,0.1-3.3-2.6-2c-2.6,1.3-5.2,2.9-5.2,2.9S634.7-11.6,636.2-12.3z"/>
		<path class="st1" d="M653.1-18.9c0,0,2.3,4.6-2.9,5.3c-0.2,0-5.1,1.2-7.3,0.1c-0.1,0.2,0.8-4.1,0.7-4c-0.2,0.1,8.9-2.5,8.9-2.5
			L653.1-18.9z"/>
		<path class="st1" d="M663.6-15.6c0,0,1.3,3.3-5.6,2.6c-7-0.7-4.8-2.4-4.8-3.4c-0.1-1.1-0.8-3.5,2.1-3.5S663.1-18.4,663.6-15.6z"/>
		<path class="st1" d="M670-11.3c0,0-8.6,1.3-6.4-5.8c0.2,0.1,6.6,3.9,7.8,5S670-11.3,670-11.3z"/>
		<path class="st1" d="M711.2,5.9c0,0,12.7-33.1,19.9-36.9c7.1-3.9,18.4-4.3,21.4-1.3c0-0.2,2,0.4,10.2-1.1c8.2-1.5,12.5,0.8,16,7.1
			c3.5,6.3,8.4,29.4,8.4,37.2s-6.7,21.8-15.8,33.9c-9.1,12.1-19.7,10.8-19.7,10.8s-16.2-1.3-23.5-8.4S711.3,11.3,711.2,5.9z"/>
		<path class="st1" d="M715.9,5.9c0,0,11.7-22,35.4-25.9c0.2,0.2,20.5-1.1,34.1,28.8c0.2,0-14.5,24-27.5,28.9c0,0-13,4.5-23.8-2.1
			C734.2,35.3,719.1,19.7,715.9,5.9z"/>
		<path class="st1" d="M750.7,32.2c0,0-11.3-1.9-14.5,0c0.2,0-3,2.6-2,3.3s9.1,4.9,16.4,3.5C750.9,39,750.7,32.2,750.7,32.2z"/>
		<path class="st1" d="M751.7,31.4l14.3,1.1c0,0-7.8,6.6-14.3,6.4C750.7,39,751.7,31.4,751.7,31.4z"/>
		<path class="st1" d="M735.1-12.3c0,0,7.2,1,6.6-1.9c0.3,0,0.1-3.3-2.6-2c-2.6,1.3-5.2,2.9-5.2,2.9S733.5-11.6,735.1-12.3z"/>
		<path class="st1" d="M752-18.9c0,0,2.3,4.6-2.9,5.3c-0.2,0-5.1,1.2-7.3,0.1c-0.1,0.2,0.8-4.1,0.7-4c-0.2,0.1,8.9-2.5,8.9-2.5
			L752-18.9z"/>
		<path class="st1" d="M762.5-15.6c0,0,1.3,3.3-5.6,2.6c-7-0.7-4.8-2.4-4.8-3.4s-0.8-3.5,2.1-3.5C757-20,762-18.4,762.5-15.6z"/>
		<path class="st1" d="M768.9-11.3c0,0-8.6,1.3-6.4-5.8c0.2,0.1,6.6,3.9,7.8,5S768.9-11.3,768.9-11.3z"/>
		<path class="st1" d="M-4.9,105.7c0,0,12.7-33.1,19.9-36.9c7.1-3.9,18.4-4.3,21.4-1.3c0-0.2,2,0.4,10.2-1.1
			c8.2-1.5,12.5,0.8,16,7.1c3.5,6.3,8.4,29.4,8.4,37.2s-6.7,21.8-15.8,33.9c-9.1,12.1-19.7,10.8-19.7,10.8s-16.2-1.3-23.5-8.4
			C4.6,139.8-4.7,111.1-4.9,105.7z"/>
		<path class="st1" d="M-0.1,105.7c0,0,11.7-22,35.4-25.9c0.2,0.2,20.5-1.1,34.1,28.8c0.2,0-14.5,24-27.5,28.9c0,0-13,4.5-23.8-2.1
			C18.2,135,3.1,119.5-0.1,105.7z"/>
		<path class="st1" d="M34.6,132.1c0,0-11.3-1.9-14.5,0c0.2,0-3,2.6-2,3.3c1.1,0.7,9.1,4.9,16.4,3.5
			C34.9,138.8,34.6,132.1,34.6,132.1z"/>
		<path class="st1" d="M35.7,131.2l14.3,1.1c0,0-7.8,6.6-14.3,6.4C34.6,138.9,35.7,131.2,35.7,131.2z"/>
		<path class="st1" d="M19.1,87.5c0,0,7.2,1,6.6-1.9c0.3,0,0.1-3.3-2.6-2S18,86.6,18,86.6S17.5,88.2,19.1,87.5z"/>
		<path class="st1" d="M35.9,80.9c0,0,2.3,4.6-2.9,5.3c-0.2,0-5.1,1.2-7.3,0.1c-0.1,0.2,0.8-4.1,0.7-4c-0.2,0.1,8.9-2.5,8.9-2.5
			L35.9,80.9z"/>
		<path class="st1" d="M46.4,84.2c0,0,1.3,3.3-5.6,2.6S36,84.4,36,83.3c-0.1-1.1-0.8-3.5,2.1-3.5C41,79.7,46,81.4,46.4,84.2z"/>
		<path class="st1" d="M52.9,88.5c0,0-8.6,1.3-6.4-5.8c0.2,0.1,6.6,3.9,7.8,5C55.6,88.7,52.9,88.5,52.9,88.5z"/>
		<path class="st1" d="M94,105.7c0,0,12.7-33.1,19.9-36.9c7.1-3.9,18.4-4.3,21.4-1.3c0-0.2,2,0.4,10.2-1.1c8.2-1.5,12.5,0.8,16,7.1
			s8.4,29.4,8.4,37.2s-6.7,21.8-15.8,33.9c-9.1,12.1-19.7,10.8-19.7,10.8s-16.2-1.3-23.5-8.4C103.5,139.8,94.2,111.1,94,105.7z"/>
		<path class="st1" d="M98.7,105.7c0,0,11.7-22,35.4-25.9c0.2,0.2,20.5-1.1,34.1,28.8c0.2,0-14.5,24-27.5,28.9c0,0-13,4.5-23.8-2.1
			C117.1,135,102,119.5,98.7,105.7z"/>
		<path class="st1" d="M133.5,132.1c0,0-11.3-1.9-14.5,0c0.2,0-3,2.6-2,3.3c1.1,0.7,9.1,4.9,16.4,3.5
			C133.7,138.8,133.5,132.1,133.5,132.1z"/>
		<path class="st1" d="M134.6,131.2l14.3,1.1c0,0-7.8,6.6-14.3,6.4C133.5,138.9,134.6,131.2,134.6,131.2z"/>
		<path class="st1" d="M118,87.5c0,0,7.2,1,6.6-1.9c0.3,0,0.1-3.3-2.6-2s-5.2,2.9-5.2,2.9S116.4,88.2,118,87.5z"/>
		<path class="st1" d="M134.8,80.9c0,0,2.3,4.6-2.9,5.3c-0.2,0-5.1,1.2-7.3,0.1c-0.1,0.2,0.8-4.1,0.7-4c-0.2,0.1,8.9-2.5,8.9-2.5
			L134.8,80.9z"/>
		<path class="st1" d="M145.3,84.2c0,0,1.3,3.3-5.6,2.6c-7-0.7-4.8-2.4-4.8-3.4c-0.1-1.1-0.8-3.5,2.1-3.5
			C139.9,79.7,144.9,81.4,145.3,84.2z"/>
		<path class="st1" d="M151.8,88.5c0,0-8.6,1.3-6.4-5.8c0.2,0.1,6.6,3.9,7.8,5C154.4,88.7,151.8,88.5,151.8,88.5z"/>
		<path class="st1" d="M192.9,105.7c0,0,12.7-33.1,19.9-36.9c7.1-3.9,18.4-4.3,21.4-1.3c0-0.2,2,0.4,10.2-1.1
			c8.2-1.5,12.5,0.8,16,7.1c3.5,6.3,8.4,29.4,8.4,37.2s-6.7,21.8-15.8,33.9c-9.1,12.1-19.7,10.8-19.7,10.8s-16.2-1.3-23.5-8.4
			C202.4,139.8,193,111.1,192.9,105.7z"/>
		<path class="st1" d="M197.6,105.7c0,0,11.7-22,35.4-25.9c0.2,0.2,20.5-1.1,34.1,28.8c0.2,0-14.5,24-27.5,28.9c0,0-13,4.5-23.8-2.1
			C215.9,135,200.8,119.5,197.6,105.7z"/>
		<path class="st1" d="M232.4,132.1c0,0-11.3-1.9-14.5,0c0.2,0-3,2.6-2,3.3c1.1,0.7,9.1,4.9,16.4,3.5
			C232.6,138.8,232.4,132.1,232.4,132.1z"/>
		<path class="st1" d="M233.5,131.2l14.3,1.1c0,0-7.8,6.6-14.3,6.4C232.4,138.9,233.5,131.2,233.5,131.2z"/>
		<path class="st1" d="M216.8,87.5c0,0,7.2,1,6.6-1.9c0.3,0,0.1-3.3-2.6-2c-2.6,1.3-5.2,2.9-5.2,2.9S215.2,88.2,216.8,87.5z"/>
		<path class="st1" d="M233.7,80.9c0,0,2.3,4.6-2.9,5.3c-0.2,0-5.1,1.2-7.3,0.1c-0.1,0.2,0.8-4.1,0.7-4c-0.2,0.1,8.9-2.5,8.9-2.5
			L233.7,80.9z"/>
		<path class="st1" d="M244.2,84.2c0,0,1.3,3.3-5.6,2.6c-7-0.7-4.8-2.4-4.8-3.4c-0.1-1.1-0.8-3.5,2.1-3.5
			C238.7,79.7,243.7,81.4,244.2,84.2z"/>
		<path class="st1" d="M250.6,88.5c0,0-8.6,1.3-6.4-5.8c0.2,0.1,6.6,3.9,7.8,5C253.3,88.7,250.6,88.5,250.6,88.5z"/>
		<path class="st1" d="M291.7,105.7c0,0,12.7-33.1,19.9-36.9c7.1-3.9,18.4-4.3,21.4-1.3c0-0.2,2,0.4,10.2-1.1
			c8.2-1.5,12.5,0.8,16,7.1c3.5,6.3,8.4,29.4,8.4,37.2s-6.7,21.8-15.8,33.9c-9.1,12.1-19.7,10.8-19.7,10.8s-16.2-1.3-23.5-8.4
			C301.2,139.8,291.9,111.1,291.7,105.7z"/>
		<path class="st1" d="M296.5,105.7c0,0,11.7-22,35.4-25.9c0.2,0.2,20.5-1.1,34.1,28.8c0.2,0-14.5,24-27.5,28.9c0,0-13,4.5-23.8-2.1
			C314.8,135,299.7,119.5,296.5,105.7z"/>
		<path class="st1" d="M331.2,132.1c0,0-11.3-1.9-14.5,0c0.2,0-3,2.6-2,3.3c1.1,0.7,9.1,4.9,16.4,3.5
			C331.4,138.8,331.2,132.1,331.2,132.1z"/>
		<path class="st1" d="M332.3,131.2l14.3,1.1c0,0-7.8,6.6-14.3,6.4C331.2,138.9,332.3,131.2,332.3,131.2z"/>
		<path class="st1" d="M315.7,87.5c0,0,7.2,1,6.6-1.9c0.3,0,0.1-3.3-2.6-2c-2.6,1.3-5.2,2.9-5.2,2.9S314.1,88.2,315.7,87.5z"/>
		<path class="st1" d="M332.5,80.9c0,0,2.3,4.6-2.9,5.3c-0.2,0-5.1,1.2-7.3,0.1c-0.1,0.2,0.8-4.1,0.7-4c-0.2,0.1,8.9-2.5,8.9-2.5
			L332.5,80.9z"/>
		<path class="st1" d="M343.1,84.2c0,0,1.3,3.3-5.6,2.6c-7-0.7-4.8-2.4-4.8-3.4c-0.1-1.1-0.8-3.5,2.1-3.5
			C337.6,79.7,342.6,81.4,343.1,84.2z"/>
		<path class="st1" d="M349.5,88.5c0,0-8.6,1.3-6.4-5.8c0.2,0.1,6.6,3.9,7.8,5C352.2,88.7,349.5,88.5,349.5,88.5z"/>
		<path class="st1" d="M390.6,105.7c0,0,12.7-33.1,19.9-36.9c7.1-3.9,18.4-4.3,21.4-1.3c0-0.2,2,0.4,10.2-1.1
			c8.2-1.5,12.5,0.8,16,7.1c3.5,6.3,8.4,29.4,8.4,37.2s-6.7,21.8-15.8,33.9c-9.1,12.1-19.7,10.8-19.7,10.8s-16.2-1.3-23.5-8.4
			C400.1,139.8,390.8,111.1,390.6,105.7z"/>
		<path class="st1" d="M395.4,105.7c0,0,11.7-22,35.4-25.9c0.2,0.2,20.5-1.1,34.1,28.8c0.2,0-14.5,24-27.5,28.9c0,0-13,4.5-23.8-2.1
			C413.7,135,398.6,119.5,395.4,105.7z"/>
		<path class="st1" d="M430.1,132.1c0,0-11.3-1.9-14.5,0c0.2,0-3,2.6-2,3.3c1.1,0.7,9.1,4.9,16.4,3.5
			C430.3,138.8,430.1,132.1,430.1,132.1z"/>
		<path class="st1" d="M431.2,131.2l14.3,1.1c0,0-7.8,6.6-14.3,6.4C430.1,138.9,431.2,131.2,431.2,131.2z"/>
		<path class="st1" d="M414.6,87.5c0,0,7.2,1,6.6-1.9c0.3,0,0.1-3.3-2.6-2s-5.2,2.9-5.2,2.9S413,88.2,414.6,87.5z"/>
		<path class="st1" d="M431.4,80.9c0,0,2.3,4.6-2.9,5.3c-0.2,0-5.1,1.2-7.3,0.1c-0.1,0.2,0.8-4.1,0.7-4c-0.2,0.1,8.9-2.5,8.9-2.5
			L431.4,80.9z"/>
		<path class="st1" d="M441.9,84.2c0,0,1.3,3.3-5.6,2.6c-7-0.7-4.8-2.4-4.8-3.4c-0.1-1.1-0.8-3.5,2.1-3.5
			C436.4,79.7,441.5,81.4,441.9,84.2z"/>
		<path class="st1" d="M448.4,88.5c0,0-8.6,1.3-6.4-5.8c0.2,0.1,6.6,3.9,7.8,5S448.4,88.5,448.4,88.5z"/>
		<path class="st1" d="M489.5,105.7c0,0,12.7-33.1,19.9-36.9c7.1-3.9,18.4-4.3,21.4-1.3c0-0.2,2,0.4,10.2-1.1
			c8.2-1.5,12.5,0.8,16,7.1c3.5,6.3,8.4,29.4,8.4,37.2s-6.7,21.8-15.8,33.9c-9.1,12.1-19.7,10.8-19.7,10.8s-16.2-1.3-23.5-8.4
			C499,139.8,489.7,111.1,489.5,105.7z"/>
		<path class="st1" d="M494.2,105.7c0,0,11.7-22,35.4-25.9c0.2,0.2,20.5-1.1,34.1,28.8c0.2,0-14.5,24-27.5,28.9c0,0-13,4.5-23.8-2.1
			C512.6,135,497.4,119.5,494.2,105.7z"/>
		<path class="st1" d="M529,132.1c0,0-11.3-1.9-14.5,0c0.2,0-3,2.6-2,3.3c1.1,0.7,9.1,4.9,16.4,3.5C529.2,138.8,529,132.1,529,132.1
			z"/>
		<path class="st1" d="M530.1,131.2l14.3,1.1c0,0-7.8,6.6-14.3,6.4C529,138.9,530.1,131.2,530.1,131.2z"/>
		<path class="st1" d="M513.4,87.5c0,0,7.2,1,6.6-1.9c0.3,0,0.1-3.3-2.6-2s-5.2,2.9-5.2,2.9S511.9,88.2,513.4,87.5z"/>
		<path class="st1" d="M530.3,80.9c0,0,2.3,4.6-2.9,5.3c-0.2,0-5.1,1.2-7.3,0.1c-0.1,0.2,0.8-4.1,0.7-4c-0.2,0.1,8.9-2.5,8.9-2.5
			L530.3,80.9z"/>
		<path class="st1" d="M540.8,84.2c0,0,1.3,3.3-5.6,2.6c-7-0.7-4.8-2.4-4.8-3.4c-0.1-1.1-0.8-3.5,2.1-3.5
			C535.3,79.7,540.3,81.4,540.8,84.2z"/>
		<path class="st1" d="M547.3,88.5c0,0-8.6,1.3-6.4-5.8c0.2,0.1,6.6,3.9,7.8,5C549.9,88.7,547.3,88.5,547.3,88.5z"/>
		<path class="st1" d="M588.6,105.7c0,0,12.7-33.1,19.9-36.9c7.1-3.9,18.4-4.3,21.4-1.3c0-0.2,2,0.4,10.2-1.1
			c8.2-1.5,12.5,0.8,16,7.1c3.5,6.3,8.4,29.4,8.4,37.2s-6.7,21.8-15.8,33.9c-9.1,12.1-19.7,10.8-19.7,10.8s-16.2-1.3-23.5-8.4
			C598.1,139.8,588.8,111.1,588.6,105.7z"/>
		<path class="st1" d="M593.3,105.7c0,0,11.7-22,35.4-25.9c0.2,0.2,20.5-1.1,34.1,28.8c0.2,0-14.5,24-27.5,28.9c0,0-13,4.5-23.8-2.1
			C611.6,135,596.5,119.5,593.3,105.7z"/>
		<path class="st1" d="M628.1,132.1c0,0-11.3-1.9-14.5,0c0.2,0-3,2.6-2,3.3c1.1,0.7,9.1,4.9,16.4,3.5
			C628.3,138.8,628.1,132.1,628.1,132.1z"/>
		<path class="st1" d="M629.2,131.2l14.3,1.1c0,0-7.8,6.6-14.3,6.4C628.1,138.9,629.2,131.2,629.2,131.2z"/>
		<path class="st1" d="M612.5,87.5c0,0,7.2,1,6.6-1.9c0.3,0,0.1-3.3-2.6-2c-2.6,1.3-5.2,2.9-5.2,2.9S610.9,88.2,612.5,87.5z"/>
		<path class="st1" d="M629.4,80.9c0,0,2.3,4.6-2.9,5.3c-0.2,0-5.1,1.2-7.3,0.1c-0.1,0.2,0.8-4.1,0.7-4c-0.2,0.1,8.9-2.5,8.9-2.5
			L629.4,80.9z"/>
		<path class="st1" d="M639.9,84.2c0,0,1.3,3.3-5.6,2.6c-7-0.7-4.8-2.4-4.8-3.4c-0.1-1.1-0.8-3.5,2.1-3.5
			C634.4,79.7,639.4,81.4,639.9,84.2z"/>
		<path class="st1" d="M646.4,88.5c0,0-8.6,1.3-6.4-5.8c0.2,0.1,6.6,3.9,7.8,5C649,88.7,646.4,88.5,646.4,88.5z"/>
		<path class="st1" d="M687.5,105.7c0,0,12.7-33.1,19.9-36.9c7.1-3.9,18.4-4.3,21.4-1.3c0-0.2,2,0.4,10.2-1.1
			c8.2-1.5,12.5,0.8,16,7.1c3.5,6.3,8.4,29.4,8.4,37.2s-6.7,21.8-15.8,33.9c-9.1,12.1-19.7,10.8-19.7,10.8s-16.2-1.3-23.5-8.4
			C696.9,139.8,687.6,111.1,687.5,105.7z"/>
		<path class="st1" d="M692.2,105.7c0,0,11.7-22,35.4-25.9c0.2,0.2,20.5-1.1,34.1,28.8c0.2,0-14.5,24-27.5,28.9c0,0-13,4.5-23.8-2.1
			C710.5,135,695.4,119.5,692.2,105.7z"/>
		<path class="st1" d="M726.9,132.1c0,0-11.3-1.9-14.5,0c0.2,0-3,2.6-2,3.3c1.1,0.7,9.1,4.9,16.4,3.5
			C727.2,138.8,726.9,132.1,726.9,132.1z"/>
		<path class="st1" d="M728.1,131.2l14.3,1.1c0,0-7.8,6.6-14.3,6.4C726.9,138.9,728.1,131.2,728.1,131.2z"/>
		<path class="st1" d="M711.4,87.5c0,0,7.2,1,6.6-1.9c0.3,0,0.1-3.3-2.6-2c-2.6,1.3-5.2,2.9-5.2,2.9S709.8,88.2,711.4,87.5z"/>
		<path class="st1" d="M728.3,80.9c0,0,2.3,4.6-2.9,5.3c-0.2,0-5.1,1.2-7.3,0.1c-0.1,0.2,0.8-4.1,0.7-4c-0.2,0.1,8.9-2.5,8.9-2.5
			L728.3,80.9z"/>
		<path class="st1" d="M738.8,84.2c0,0,1.3,3.3-5.6,2.6c-7-0.7-4.8-2.4-4.8-3.4s-0.8-3.5,2.1-3.5C733.3,79.7,738.3,81.4,738.8,84.2z
			"/>
		<path class="st1" d="M745.2,88.5c0,0-8.6,1.3-6.4-5.8c0.2,0.1,6.6,3.9,7.8,5C747.9,88.7,745.2,88.5,745.2,88.5z"/>
		<path class="st1" d="M7.2,205.5c0,0,12.7-33.1,19.9-36.9c7.1-3.9,18.4-4.3,21.4-1.3c0-0.2,2,0.4,10.2-1.1c8.2-1.5,12.5,0.8,16,7.1
			c3.5,6.3,8.4,29.4,8.4,37.2c0,7.7-6.7,21.8-15.8,33.9s-19.7,10.8-19.7,10.8s-16.2-1.3-23.5-8.4C16.8,239.6,7.4,210.9,7.2,205.5z"
			/>
		<path class="st1" d="M12,205.5c0,0,11.7-22,35.4-25.9c0.2,0.2,20.5-1.1,34.1,28.8c0.2,0-14.5,24-27.5,28.9c0,0-13,4.5-23.8-2.1
			C30.4,234.9,15.3,219.3,12,205.5z"/>
		<path class="st1" d="M46.8,231.9c0,0-11.3-1.9-14.5,0c0.2,0-3,2.6-2,3.3c1.1,0.7,9.1,4.9,16.4,3.5C47,238.6,46.8,231.9,46.8,231.9
			z"/>
		<path class="st1" d="M47.8,231l14.3,1.1c0,0-7.8,6.6-14.3,6.4C46.8,238.6,47.8,231,47.8,231z"/>
		<path class="st1" d="M31.2,187.3c0,0,7.2,1,6.6-1.9c0.3,0,0.1-3.3-2.6-2c-2.6,1.3-5.2,2.9-5.2,2.9S29.6,188,31.2,187.3z"/>
		<path class="st1" d="M48,180.6c0,0,2.3,4.6-2.9,5.3c-0.2,0-5.1,1.2-7.3,0.1c-0.1,0.2,0.8-4.1,0.7-4c-0.2,0.1,8.9-2.5,8.9-2.5
			L48,180.6z"/>
		<path class="st1" d="M58.5,184c0,0,1.3,3.3-5.6,2.6c-7-0.7-4.8-2.4-4.8-3.4c-0.1-1.1-0.8-3.5,2.1-3.5
			C53.1,179.5,58.2,181.2,58.5,184z"/>
		<path class="st1" d="M65.1,188.3c0,0-8.6,1.3-6.4-5.8c0.2,0.1,6.6,3.9,7.8,5C67.7,188.5,65.1,188.3,65.1,188.3z"/>
		<path class="st1" d="M106.1,205.5c0,0,12.7-33.1,19.9-36.9c7.1-3.9,18.4-4.3,21.4-1.3c0-0.2,2,0.4,10.2-1.1
			c8.2-1.5,12.5,0.8,16,7.1c3.5,6.3,8.4,29.4,8.4,37.2c0,7.7-6.7,21.8-15.8,33.9s-19.7,10.8-19.7,10.8s-16.2-1.3-23.5-8.4
			C115.7,239.6,106.3,210.9,106.1,205.5z"/>
		<path class="st1" d="M110.9,205.5c0,0,11.7-22,35.4-25.9c0.2,0.2,20.5-1.1,34.1,28.8c0.2,0-14.5,24-27.5,28.9c0,0-13,4.5-23.8-2.1
			C129.2,234.9,114.1,219.3,110.9,205.5z"/>
		<path class="st1" d="M145.6,231.9c0,0-11.3-1.9-14.5,0c0.2,0-3,2.6-2,3.3c1.1,0.7,9.1,4.9,16.4,3.5
			C145.9,238.6,145.6,231.9,145.6,231.9z"/>
		<path class="st1" d="M146.7,231l14.3,1.1c0,0-7.8,6.6-14.3,6.4C145.6,238.6,146.7,231,146.7,231z"/>
		<path class="st1" d="M130.1,187.3c0,0,7.2,1,6.6-1.9c0.3,0,0.1-3.3-2.6-2c-2.6,1.3-5.2,2.9-5.2,2.9S128.5,188,130.1,187.3z"/>
		<path class="st1" d="M146.9,180.6c0,0,2.3,4.6-2.9,5.3c-0.2,0-5.1,1.2-7.3,0.1c-0.1,0.2,0.8-4.1,0.7-4c-0.2,0.1,8.9-2.5,8.9-2.5
			L146.9,180.6z"/>
		<path class="st1" d="M157.4,184c0,0,1.3,3.3-5.6,2.6c-7-0.7-4.8-2.4-4.8-3.4s-0.8-3.5,2.1-3.5C152,179.5,157,181.2,157.4,184z"/>
		<path class="st1" d="M163.9,188.3c0,0-8.6,1.3-6.4-5.8c0.2,0.1,6.6,3.9,7.8,5C166.6,188.5,163.9,188.3,163.9,188.3z"/>
		<path class="st1" d="M205,205.5c0,0,12.7-33.1,19.9-36.9c7.1-3.9,18.4-4.3,21.4-1.3c0-0.2,2,0.4,10.2-1.1c8.2-1.5,12.5,0.8,16,7.1
			c3.5,6.3,8.4,29.4,8.4,37.2c0,7.7-6.7,21.8-15.8,33.9c-9.1,12.1-19.7,10.8-19.7,10.8s-16.2-1.3-23.5-8.4
			C214.5,239.6,205.2,210.9,205,205.5z"/>
		<path class="st1" d="M209.7,205.5c0,0,11.7-22,35.4-25.9c0.2,0.2,20.5-1.1,34.1,28.8c0.2,0-14.5,24-27.5,28.9c0,0-13,4.5-23.8-2.1
			C228.1,234.9,213,219.3,209.7,205.5z"/>
		<path class="st1" d="M244.5,231.9c0,0-11.3-1.9-14.5,0c0.2,0-3,2.6-2,3.3c1.1,0.7,9.1,4.9,16.4,3.5
			C244.7,238.6,244.5,231.9,244.5,231.9z"/>
		<path class="st1" d="M245.6,231l14.3,1.1c0,0-7.8,6.6-14.3,6.4C244.5,238.6,245.6,231,245.6,231z"/>
		<path class="st1" d="M229,187.3c0,0,7.2,1,6.6-1.9c0.3,0,0.1-3.3-2.6-2c-2.6,1.3-5.2,2.9-5.2,2.9S227.4,188,229,187.3z"/>
		<path class="st1" d="M245.8,180.6c0,0,2.3,4.6-2.9,5.3c-0.2,0-5.1,1.2-7.3,0.1c-0.1,0.2,0.8-4.1,0.7-4c-0.2,0.1,8.9-2.5,8.9-2.5
			L245.8,180.6z"/>
		<path class="st1" d="M256.3,184c0,0,1.3,3.3-5.6,2.6c-7-0.7-4.8-2.4-4.8-3.4c-0.1-1.1-0.8-3.5,2.1-3.5
			C250.9,179.5,255.9,181.2,256.3,184z"/>
		<path class="st1" d="M262.8,188.3c0,0-8.6,1.3-6.4-5.8c0.2,0.1,6.6,3.9,7.8,5C265.4,188.5,262.8,188.3,262.8,188.3z"/>
		<path class="st1" d="M303.9,205.5c0,0,12.7-33.1,19.9-36.9c7.1-3.9,18.4-4.3,21.4-1.3c0-0.2,2,0.4,10.2-1.1
			c8.2-1.5,12.5,0.8,16,7.1c3.5,6.3,8.4,29.4,8.4,37.2c0,7.7-6.7,21.8-15.8,33.9s-19.7,10.8-19.7,10.8s-16.2-1.3-23.5-8.4
			C313.4,239.6,304,210.9,303.9,205.5z"/>
		<path class="st1" d="M308.6,205.5c0,0,11.7-22,35.4-25.9c0.2,0.2,20.5-1.1,34.1,28.8c0.2,0-14.5,24-27.5,28.9c0,0-13,4.5-23.8-2.1
			C327,234.9,311.9,219.3,308.6,205.5z"/>
		<path class="st1" d="M343.4,231.9c0,0-11.3-1.9-14.5,0c0.2,0-3,2.6-2,3.3c1.1,0.7,9.1,4.9,16.4,3.5
			C343.6,238.6,343.4,231.9,343.4,231.9z"/>
		<path class="st1" d="M344.5,231l14.3,1.1c0,0-7.8,6.6-14.3,6.4C343.4,238.6,344.5,231,344.5,231z"/>
		<path class="st1" d="M327.9,187.3c0,0,7.2,1,6.6-1.9c0.3,0,0.1-3.3-2.6-2c-2.6,1.3-5.2,2.9-5.2,2.9S326.2,188,327.9,187.3z"/>
		<path class="st1" d="M344.7,180.6c0,0,2.3,4.6-2.9,5.3c-0.2,0-5.1,1.2-7.3,0.1c-0.1,0.2,0.8-4.1,0.7-4c-0.2,0.1,8.9-2.5,8.9-2.5
			L344.7,180.6z"/>
		<path class="st1" d="M355.2,184c0,0,1.3,3.3-5.6,2.6c-7-0.7-4.8-2.4-4.8-3.4c-0.1-1.1-0.8-3.5,2.1-3.5
			C349.7,179.5,354.8,181.2,355.2,184z"/>
		<path class="st1" d="M361.7,188.3c0,0-8.6,1.3-6.4-5.8c0.2,0.1,6.6,3.9,7.8,5C364.3,188.5,361.7,188.3,361.7,188.3z"/>
		<path class="st1" d="M402.7,205.5c0,0,12.7-33.1,19.9-36.9c7.1-3.9,18.4-4.3,21.4-1.3c0-0.2,2,0.4,10.2-1.1
			c8.2-1.5,12.5,0.8,16,7.1c3.5,6.3,8.4,29.4,8.4,37.2c0,7.7-6.7,21.8-15.8,33.9c-9.1,12.1-19.7,10.8-19.7,10.8s-16.2-1.3-23.5-8.4
			C412.3,239.6,402.9,210.9,402.7,205.5z"/>
		<path class="st1" d="M407.5,205.5c0,0,11.7-22,35.4-25.9c0.2,0.2,20.5-1.1,34.1,28.8c0.2,0-14.5,24-27.5,28.9c0,0-13,4.5-23.8-2.1
			C425.8,234.9,410.7,219.3,407.5,205.5z"/>
		<path class="st1" d="M442.2,231.9c0,0-11.3-1.9-14.5,0c0.2,0-3,2.6-2,3.3c1.1,0.7,9.1,4.9,16.4,3.5
			C442.5,238.6,442.2,231.9,442.2,231.9z"/>
		<path class="st1" d="M443.3,231l14.3,1.1c0,0-7.8,6.6-14.3,6.4C442.2,238.6,443.3,231,443.3,231z"/>
		<path class="st1" d="M426.7,187.3c0,0,7.2,1,6.6-1.9c0.3,0,0.1-3.3-2.6-2c-2.6,1.3-5.2,2.9-5.2,2.9S425.1,188,426.7,187.3z"/>
		<path class="st1" d="M443.5,180.6c0,0,2.3,4.6-2.9,5.3c-0.2,0-5.1,1.2-7.3,0.1c-0.1,0.2,0.8-4.1,0.7-4c-0.2,0.1,8.9-2.5,8.9-2.5
			L443.5,180.6z"/>
		<path class="st1" d="M454.1,184c0,0,1.3,3.3-5.6,2.6c-7-0.7-4.8-2.4-4.8-3.4c-0.1-1.1-0.8-3.5,2.1-3.5
			C448.6,179.5,453.6,181.2,454.1,184z"/>
		<path class="st1" d="M460.5,188.3c0,0-8.6,1.3-6.4-5.8c0.2,0.1,6.6,3.9,7.8,5C463.2,188.5,460.5,188.3,460.5,188.3z"/>
		<path class="st1" d="M501.6,205.5c0,0,12.7-33.1,19.9-36.9c7.1-3.9,18.4-4.3,21.4-1.3c0-0.2,2,0.4,10.2-1.1
			c8.2-1.5,12.5,0.8,16,7.1c3.5,6.3,8.4,29.4,8.4,37.2c0,7.7-6.7,21.8-15.8,33.9S542,255.2,542,255.2s-16.2-1.3-23.5-8.4
			C511.1,239.6,501.8,210.9,501.6,205.5z"/>
		<path class="st1" d="M506.4,205.5c0,0,11.7-22,35.4-25.9c0.2,0.2,20.5-1.1,34.1,28.8c0.2,0-14.5,24-27.5,28.9c0,0-13,4.5-23.8-2.1
			C524.7,234.9,509.6,219.3,506.4,205.5z"/>
		<path class="st1" d="M541.1,231.9c0,0-11.3-1.9-14.5,0c0.2,0-3,2.6-2,3.3c1.1,0.7,9.1,4.9,16.4,3.5
			C541.3,238.6,541.1,231.9,541.1,231.9z"/>
		<path class="st1" d="M542.2,231l14.3,1.1c0,0-7.8,6.6-14.3,6.4C541.1,238.6,542.2,231,542.2,231z"/>
		<path class="st1" d="M525.6,187.3c0,0,7.2,1,6.6-1.9c0.3,0,0.1-3.3-2.6-2c-2.6,1.3-5.2,2.9-5.2,2.9S524,188,525.6,187.3z"/>
		<path class="st1" d="M542.4,180.6c0,0,2.3,4.6-2.9,5.3c-0.2,0-5.1,1.2-7.3,0.1c-0.1,0.2,0.8-4.1,0.7-4s8.9-2.5,8.9-2.5
			L542.4,180.6z"/>
		<path class="st1" d="M552.9,184c0,0,1.3,3.3-5.6,2.6c-7-0.7-4.8-2.4-4.8-3.4s-0.8-3.5,2.1-3.5C547.5,179.5,552.5,181.2,552.9,184z
			"/>
		<path class="st1" d="M559.4,188.3c0,0-8.6,1.3-6.4-5.8c0.2,0.1,6.6,3.9,7.8,5C562.1,188.5,559.4,188.3,559.4,188.3z"/>
		<path class="st1" d="M600.7,205.5c0,0,12.7-33.1,19.9-36.9c7.1-3.9,18.4-4.3,21.4-1.3c0-0.2,2,0.4,10.2-1.1
			c8.2-1.5,12.5,0.8,16,7.1c3.5,6.3,8.4,29.4,8.4,37.2c0,7.7-6.7,21.8-15.8,33.9c-9.1,12.1-19.7,10.8-19.7,10.8s-16.2-1.3-23.5-8.4
			C610.2,239.6,600.9,210.9,600.7,205.5z"/>
		<path class="st1" d="M605.5,205.5c0,0,11.7-22,35.4-25.9c0.2,0.2,20.5-1.1,34.1,28.8c0.2,0-14.5,24-27.5,28.9c0,0-13,4.5-23.8-2.1
			C623.8,234.9,608.7,219.3,605.5,205.5z"/>
		<path class="st1" d="M640.2,231.9c0,0-11.3-1.9-14.5,0c0.2,0-3,2.6-2,3.3c1.1,0.7,9.1,4.9,16.4,3.5
			C640.5,238.6,640.2,231.9,640.2,231.9z"/>
		<path class="st1" d="M641.3,231l14.3,1.1c0,0-7.8,6.6-14.3,6.4C640.2,238.6,641.3,231,641.3,231z"/>
		<path class="st1" d="M624.7,187.3c0,0,7.2,1,6.6-1.9c0.3,0,0.1-3.3-2.6-2c-2.6,1.3-5.2,2.9-5.2,2.9S623.1,188,624.7,187.3z"/>
		<path class="st1" d="M641.5,180.6c0,0,2.3,4.6-2.9,5.3c-0.2,0-5.1,1.2-7.3,0.1c-0.1,0.2,0.8-4.1,0.7-4c-0.2,0.1,8.9-2.5,8.9-2.5
			L641.5,180.6z"/>
		<path class="st1" d="M652,184c0,0,1.3,3.3-5.6,2.6c-7-0.7-4.8-2.4-4.8-3.4c-0.1-1.1-0.8-3.5,2.1-3.5
			C646.6,179.5,651.6,181.2,652,184z"/>
		<path class="st1" d="M658.5,188.3c0,0-8.6,1.3-6.4-5.8c0.2,0.1,6.6,3.9,7.8,5C661.1,188.5,658.5,188.3,658.5,188.3z"/>
		<path class="st1" d="M699.6,205.5c0,0,12.7-33.1,19.9-36.9c7.1-3.9,18.4-4.3,21.4-1.3c0-0.2,2,0.4,10.2-1.1
			c8.2-1.5,12.5,0.8,16,7.1c3.5,6.3,8.4,29.4,8.4,37.2c0,7.7-6.7,21.8-15.8,33.9c-9.1,12.1-19.7,10.8-19.7,10.8s-16.2-1.3-23.5-8.4
			C709.1,239.6,699.8,210.9,699.6,205.5z"/>
		<path class="st1" d="M704.3,205.5c0,0,11.7-22,35.4-25.9c0.2,0.2,20.5-1.1,34.1,28.8c0.2,0-14.5,24-27.5,28.9c0,0-13,4.5-23.8-2.1
			C722.7,234.9,707.6,219.3,704.3,205.5z"/>
		<path class="st1" d="M739.1,231.9c0,0-11.3-1.9-14.5,0c0.2,0-3,2.6-2,3.3c1.1,0.7,9.1,4.9,16.4,3.5
			C739.3,238.6,739.1,231.9,739.1,231.9z"/>
		<path class="st1" d="M740.2,231l14.3,1.1c0,0-7.8,6.6-14.3,6.4C739.1,238.6,740.2,231,740.2,231z"/>
		<path class="st1" d="M723.6,187.3c0,0,7.2,1,6.6-1.9c0.3,0,0.1-3.3-2.6-2c-2.6,1.3-5.2,2.9-5.2,2.9S721.9,188,723.6,187.3z"/>
		<path class="st1" d="M740.4,180.6c0,0,2.3,4.6-2.9,5.3c-0.2,0-5.1,1.2-7.3,0.1c-0.1,0.2,0.8-4.1,0.7-4c-0.2,0.1,8.9-2.5,8.9-2.5
			L740.4,180.6z"/>
		<path class="st1" d="M750.9,184c0,0,1.3,3.3-5.6,2.6c-7-0.7-4.8-2.4-4.8-3.4s-0.8-3.5,2.1-3.5C745.4,179.5,750.5,181.2,750.9,184z
			"/>
		<path class="st1" d="M757.4,188.3c0,0-8.6,1.3-6.4-5.8c0.2,0.1,6.6,3.9,7.8,5C760,188.5,757.4,188.3,757.4,188.3z"/>
		<path class="st1" d="M-16.5,305.2c0,0,12.7-33.1,19.9-36.9s18.4-4.3,21.4-1.3c0-0.2,2,0.4,10.2-1.1s12.5,0.8,16,7.1
			c3.5,6.3,8.4,29.4,8.4,37.2c0,7.8-6.7,21.8-15.8,33.9C34.5,356.2,24,354.9,24,354.9s-16.2-1.3-23.5-8.4
			C-6.9,339.4-16.2,310.7-16.5,305.2z"/>
		<path class="st1" d="M-11.7,305.2c0,0,11.7-22,35.4-25.9c0.2,0.2,20.5-1.1,34.1,28.8c0.2,0-14.5,24-27.5,28.9c0,0-13,4.5-23.8-2.1
			C6.7,334.7-8.5,319.1-11.7,305.2z"/>
		<path class="st1" d="M23.1,331.6c0,0-11.3-1.9-14.5,0c0.2,0-3,2.6-2,3.3c1.1,0.7,9.1,4.9,16.4,3.5
			C23.3,338.4,23.1,331.6,23.1,331.6z"/>
		<path class="st1" d="M24.1,330.8l14.3,1.1c0,0-7.8,6.6-14.3,6.4C23.1,338.4,24.1,330.8,24.1,330.8z"/>
		<path class="st1" d="M24.4,280.4c0,0,2.3,4.6-2.9,5.3c-0.2,0-5.1,1.2-7.3,0.1c-0.1,0.2,0.8-4.1,0.7-4c-0.2,0.1,8.9-2.5,8.9-2.5
			L24.4,280.4z"/>
		<path class="st1" d="M34.9,283.7c0,0,1.3,3.3-5.6,2.6c-7-0.7-4.8-2.4-4.8-3.4c-0.1-1.1-0.8-3.5,2.1-3.5
			C29.4,279.3,34.5,281,34.9,283.7z"/>
		<path class="st1" d="M41.4,288.1c0,0-8.6,1.3-6.4-5.8c0.2,0.1,6.6,3.9,7.8,5S41.4,288.1,41.4,288.1z"/>
		<path class="st1" d="M82.4,305.2c0,0,12.7-33.1,19.9-36.9s18.4-4.3,21.4-1.3c0-0.2,2,0.4,10.2-1.1s12.5,0.8,16,7.1
			c3.5,6.3,8.4,29.4,8.4,37.2c0,7.8-6.7,21.8-15.8,33.9c-9.1,12.1-19.7,10.8-19.7,10.8s-16.2-1.3-23.5-8.4
			C92,339.4,82.6,310.7,82.4,305.2z"/>
		<path class="st1" d="M87.2,305.2c0,0,11.7-22,35.4-25.9c0.2,0.2,20.5-1.1,34.1,28.8c0.2,0-14.5,24-27.5,28.9c0,0-13,4.5-23.8-2.1
			C105.5,334.7,90.4,319.1,87.2,305.2z"/>
		<path class="st1" d="M121.9,331.6c0,0-11.3-1.9-14.5,0c0.2,0-3,2.6-2,3.3c1.1,0.7,9.1,4.9,16.4,3.5
			C122.2,338.4,121.9,331.6,121.9,331.6z"/>
		<path class="st1" d="M123,330.8l14.3,1.1c0,0-7.8,6.6-14.3,6.4C121.9,338.4,123,330.8,123,330.8z"/>
		<path class="st1" d="M106.4,287c0,0,7.2,1,6.6-1.9c0.3,0,0.1-3.3-2.6-2c-2.6,1.3-5.2,2.9-5.2,2.9S104.8,287.8,106.4,287z"/>
		<path class="st1" d="M123.2,280.4c0,0,2.3,4.6-2.9,5.3c-0.2,0-5.1,1.2-7.3,0.1c-0.1,0.2,0.8-4.1,0.7-4c-0.2,0.1,8.9-2.5,8.9-2.5
			L123.2,280.4z"/>
		<path class="st1" d="M133.7,283.7c0,0,1.3,3.3-5.6,2.6c-7-0.7-4.8-2.4-4.8-3.4c-0.1-1.1-0.8-3.5,2.1-3.5
			C128.3,279.3,133.3,281,133.7,283.7z"/>
		<path class="st1" d="M140.3,288.1c0,0-8.6,1.3-6.4-5.8c0.2,0.1,6.6,3.9,7.8,5C142.8,288.3,140.3,288.1,140.3,288.1z"/>
		<path class="st1" d="M181.3,305.2c0,0,12.7-33.1,19.9-36.9c7.1-3.9,18.4-4.3,21.4-1.3c0-0.2,2,0.4,10.2-1.1
			c8.2-1.5,12.5,0.8,16,7.1c3.5,6.3,8.4,29.4,8.4,37.2c0,7.8-6.7,21.8-15.8,33.9c-9.1,12.1-19.7,10.8-19.7,10.8s-16.2-1.3-23.5-8.4
			C190.8,339.4,181.5,310.7,181.3,305.2z"/>
		<path class="st1" d="M186,305.2c0,0,11.7-22,35.4-25.9c0.2,0.2,20.5-1.1,34.1,28.8c0.2,0-14.5,24-27.5,28.9c0,0-13,4.5-23.8-2.1
			C204.4,334.7,189.3,319.1,186,305.2z"/>
		<path class="st1" d="M220.8,331.6c0,0-11.3-1.9-14.5,0c0.2,0-3,2.6-2,3.3c1.1,0.7,9.1,4.9,16.4,3.5
			C221.1,338.4,220.8,331.6,220.8,331.6z"/>
		<path class="st1" d="M221.9,330.8l14.3,1.1c0,0-7.8,6.6-14.3,6.4C220.8,338.4,221.9,330.8,221.9,330.8z"/>
		<path class="st1" d="M205.3,287c0,0,7.2,1,6.6-1.9c0.3,0,0.1-3.3-2.6-2c-2.6,1.3-5.2,2.9-5.2,2.9S203.6,287.8,205.3,287z"/>
		<path class="st1" d="M222.1,280.4c0,0,2.3,4.6-2.9,5.3c-0.2,0-5.1,1.2-7.3,0.1c-0.1,0.2,0.8-4.1,0.7-4c-0.2,0.1,8.9-2.5,8.9-2.5
			L222.1,280.4z"/>
		<path class="st1" d="M232.6,283.7c0,0,1.3,3.3-5.6,2.6c-7-0.7-4.8-2.4-4.8-3.4c-0.1-1.1-0.8-3.5,2.1-3.5S232.2,281,232.6,283.7z"
			/>
		<path class="st1" d="M239.1,288.1c0,0-8.6,1.3-6.4-5.8c0.2,0.1,6.6,3.9,7.8,5C241.7,288.3,239.1,288.1,239.1,288.1z"/>
		<path class="st1" d="M280.1,305.2c0,0,12.7-33.1,19.9-36.9c7.1-3.9,18.4-4.3,21.4-1.3c0-0.2,2,0.4,10.2-1.1
			c8.2-1.5,12.5,0.8,16,7.1c3.5,6.3,8.4,29.4,8.4,37.2c0,7.8-6.7,21.8-15.8,33.9c-9.1,12.1-19.7,10.8-19.7,10.8s-16.2-1.3-23.5-8.4
			C289.7,339.4,280.4,310.7,280.1,305.2z"/>
		<path class="st1" d="M284.9,305.2c0,0,11.7-22,35.4-25.9c0.2,0.2,20.5-1.1,34.1,28.8c0.2,0-14.5,24-27.5,28.9c0,0-13,4.5-23.8-2.1
			C303.3,334.7,288.2,319.1,284.9,305.2z"/>
		<path class="st1" d="M319.7,331.6c0,0-11.3-1.9-14.5,0c0.2,0-3,2.6-2,3.3c1.1,0.7,9.1,4.9,16.4,3.5
			C319.9,338.4,319.7,331.6,319.7,331.6z"/>
		<path class="st1" d="M320.8,330.8l14.3,1.1c0,0-7.8,6.6-14.3,6.4C319.7,338.4,320.8,330.8,320.8,330.8z"/>
		<path class="st1" d="M304.1,287c0,0,7.2,1,6.6-1.9c0.3,0,0.1-3.3-2.6-2c-2.6,1.3-5.2,2.9-5.2,2.9S302.5,287.8,304.1,287z"/>
		<path class="st1" d="M320.9,280.4c0,0,2.3,4.6-2.9,5.3c-0.2,0-5.1,1.2-7.3,0.1c-0.1,0.2,0.8-4.1,0.7-4c-0.2,0.1,8.9-2.5,8.9-2.5
			L320.9,280.4z"/>
		<path class="st1" d="M331.5,283.7c0,0,1.3,3.3-5.6,2.6c-7-0.7-4.8-2.4-4.8-3.4c-0.1-1.1-0.8-3.5,2.1-3.5
			C326,279.3,331.1,281,331.5,283.7z"/>
		<path class="st1" d="M338,288.1c0,0-8.6,1.3-6.4-5.8c0.2,0.1,6.6,3.9,7.8,5S338,288.1,338,288.1z"/>
		<path class="st1" d="M379,305.2c0,0,12.7-33.1,19.9-36.9s18.4-4.3,21.4-1.3c0-0.2,2,0.4,10.2-1.1c8.2-1.5,12.5,0.8,16,7.1
			c3.5,6.3,8.4,29.4,8.4,37.2c0,7.8-6.7,21.8-15.8,33.9c-9.1,12.1-19.7,10.8-19.7,10.8s-16.2-1.3-23.5-8.4
			C388.6,339.4,379.2,310.7,379,305.2z"/>
		<path class="st1" d="M383.8,305.2c0,0,11.7-22,35.4-25.9c0.2,0.2,20.5-1.1,34.1,28.8c0.2,0-14.5,24-27.5,28.9c0,0-13,4.5-23.8-2.1
			C402.1,334.7,387,319.1,383.8,305.2z"/>
		<path class="st1" d="M418.5,331.6c0,0-11.3-1.9-14.5,0c0.2,0-3,2.6-2,3.3c1.1,0.7,9.1,4.9,16.4,3.5
			C418.8,338.4,418.5,331.6,418.5,331.6z"/>
		<path class="st1" d="M419.6,330.8l14.3,1.1c0,0-7.8,6.6-14.3,6.4C418.5,338.4,419.6,330.8,419.6,330.8z"/>
		<path class="st1" d="M403,287c0,0,7.2,1,6.6-1.9c0.3,0,0.1-3.3-2.6-2c-2.6,1.3-5.2,2.9-5.2,2.9S401.4,287.8,403,287z"/>
		<path class="st1" d="M419.8,280.4c0,0,2.3,4.6-2.9,5.3c-0.2,0-5.1,1.2-7.3,0.1c-0.1,0.2,0.8-4.1,0.7-4c-0.2,0.1,8.9-2.5,8.9-2.5
			L419.8,280.4z"/>
		<path class="st1" d="M430.3,283.7c0,0,1.3,3.3-5.6,2.6c-7-0.7-4.8-2.4-4.8-3.4c-0.1-1.1-0.8-3.5,2.1-3.5
			C424.9,279.3,429.9,281,430.3,283.7z"/>
		<path class="st1" d="M436.8,288.1c0,0-8.6,1.3-6.4-5.8c0.2,0.1,6.6,3.9,7.8,5S436.8,288.1,436.8,288.1z"/>
		<path class="st1" d="M477.9,305.2c0,0,12.7-33.1,19.9-36.9s18.4-4.3,21.4-1.3c0-0.2,2,0.4,10.2-1.1s12.5,0.8,16,7.1
			c3.5,6.3,8.4,29.4,8.4,37.2c0,7.8-6.7,21.8-15.8,33.9c-9.1,12.1-19.7,10.8-19.7,10.8s-16.2-1.3-23.5-8.4
			C487.4,339.4,478.1,310.7,477.9,305.2z"/>
		<path class="st1" d="M482.7,305.2c0,0,11.7-22,35.4-25.9c0.2,0.2,20.5-1.1,34.1,28.8c0.2,0-14.5,24-27.5,28.9c0,0-13,4.5-23.8-2.1
			C501,334.7,485.9,319.1,482.7,305.2z"/>
		<path class="st1" d="M517.4,331.6c0,0-11.3-1.9-14.5,0c0.2,0-3,2.6-2,3.3c1.1,0.7,9.1,4.9,16.4,3.5
			C517.7,338.4,517.4,331.6,517.4,331.6z"/>
		<path class="st1" d="M518.5,330.8l14.3,1.1c0,0-7.8,6.6-14.3,6.4C517.4,338.4,518.5,330.8,518.5,330.8z"/>
		<path class="st1" d="M501.9,287c0,0,7.2,1,6.6-1.9c0.3,0,0.1-3.3-2.6-2c-2.6,1.3-5.2,2.9-5.2,2.9S500.3,287.8,501.9,287z"/>
		<path class="st1" d="M518.7,280.4c0,0,2.3,4.6-2.9,5.3c-0.2,0-5.1,1.2-7.3,0.1c-0.1,0.2,0.8-4.1,0.7-4s8.9-2.5,8.9-2.5
			L518.7,280.4z"/>
		<path class="st1" d="M529.2,283.7c0,0,1.3,3.3-5.6,2.6c-7-0.7-4.8-2.4-4.8-3.4c-0.1-1.1-0.8-3.5,2.1-3.5
			C523.8,279.3,528.8,281,529.2,283.7z"/>
		<path class="st1" d="M535.7,288.1c0,0-8.6,1.3-6.4-5.8c0.2,0.1,6.6,3.9,7.8,5C538.3,288.3,535.7,288.1,535.7,288.1z"/>
		<path class="st1" d="M577,305.2c0,0,12.7-33.1,19.9-36.9c7.1-3.9,18.4-4.3,21.4-1.3c0-0.2,2,0.4,10.2-1.1s12.5,0.8,16,7.1
			c3.5,6.3,8.4,29.4,8.4,37.2c0,7.8-6.7,21.8-15.8,33.9c-9.1,12.1-19.7,10.8-19.7,10.8s-16.2-1.3-23.5-8.4
			C586.5,339.4,577.2,310.7,577,305.2z"/>
		<path class="st1" d="M581.7,305.2c0,0,11.7-22,35.4-25.9c0.2,0.2,20.5-1.1,34.1,28.8c0.2,0-14.5,24-27.5,28.9c0,0-13,4.5-23.8-2.1
			C600.1,334.7,585,319.1,581.7,305.2z"/>
		<path class="st1" d="M616.5,331.6c0,0-11.3-1.9-14.5,0c0.2,0-3,2.6-2,3.3c1.1,0.7,9.1,4.9,16.4,3.5
			C616.8,338.4,616.5,331.6,616.5,331.6z"/>
		<path class="st1" d="M617.6,330.8l14.3,1.1c0,0-7.8,6.6-14.3,6.4C616.5,338.4,617.6,330.8,617.6,330.8z"/>
		<path class="st1" d="M601,287c0,0,7.2,1,6.6-1.9c0.3,0,0.1-3.3-2.6-2c-2.6,1.3-5.2,2.9-5.2,2.9S599.4,287.8,601,287z"/>
		<path class="st1" d="M617.8,280.4c0,0,2.3,4.6-2.9,5.3c-0.2,0-5.1,1.2-7.3,0.1c-0.1,0.2,0.8-4.1,0.7-4c-0.2,0.1,8.9-2.5,8.9-2.5
			L617.8,280.4z"/>
		<path class="st1" d="M628.3,283.7c0,0,1.3,3.3-5.6,2.6c-7-0.7-4.8-2.4-4.8-3.4c-0.1-1.1-0.8-3.5,2.1-3.5
			C622.9,279.3,627.9,281,628.3,283.7z"/>
		<path class="st1" d="M634.8,288.1c0,0-8.6,1.3-6.4-5.8c0.2,0.1,6.6,3.9,7.8,5C637.4,288.3,634.8,288.1,634.8,288.1z"/>
		<path class="st1" d="M675.9,305.2c0,0,12.7-33.1,19.9-36.9s18.4-4.3,21.4-1.3c0-0.2,2,0.4,10.2-1.1s12.5,0.8,16,7.1
			c3.5,6.3,8.4,29.4,8.4,37.2c0,7.8-6.7,21.8-15.8,33.9c-9.1,12.1-19.7,10.8-19.7,10.8s-16.2-1.3-23.5-8.4
			C685.4,339.4,676.1,310.7,675.9,305.2z"/>
		<path class="st1" d="M680.6,305.2c0,0,11.7-22,35.4-25.9c0.2,0.2,20.5-1.1,34.1,28.8c0.2,0-14.5,24-27.5,28.9c0,0-13,4.5-23.8-2.1
			C699,334.7,683.9,319.1,680.6,305.2z"/>
		<path class="st1" d="M715.4,331.6c0,0-11.3-1.9-14.5,0c0.2,0-3,2.6-2,3.3c1.1,0.7,9.1,4.9,16.4,3.5
			C715.6,338.4,715.4,331.6,715.4,331.6z"/>
		<path class="st1" d="M716.5,330.8l14.3,1.1c0,0-7.8,6.6-14.3,6.4C715.4,338.4,716.5,330.8,716.5,330.8z"/>
		<path class="st1" d="M699.9,287c0,0,7.2,1,6.6-1.9c0.3,0,0.1-3.3-2.6-2c-2.6,1.3-5.2,2.9-5.2,2.9S698.2,287.8,699.9,287z"/>
		<path class="st1" d="M716.7,280.4c0,0,2.3,4.6-2.9,5.3c-0.2,0-5.1,1.2-7.3,0.1c-0.1,0.2,0.8-4.1,0.7-4c-0.2,0.1,8.9-2.5,8.9-2.5
			L716.7,280.4z"/>
		<path class="st1" d="M727.2,283.7c0,0,1.3,3.3-5.6,2.6c-7-0.7-4.8-2.4-4.8-3.4c-0.1-1.1-0.8-3.5,2.1-3.5S726.8,281,727.2,283.7z"
			/>
		<path class="st1" d="M733.7,288.1c0,0-8.6,1.3-6.4-5.8c0.2,0.1,6.6,3.9,7.8,5S733.7,288.1,733.7,288.1z"/>
		<path class="st1" d="M-10.5,405.1c0,0,12.7-33.1,19.9-36.9s18.4-4.3,21.4-1.3c0-0.2,2,0.4,10.2-1.1s12.5,0.8,16,7.1
			c3.5,6.3,8.4,29.4,8.4,37.2s-6.7,21.8-15.8,33.9s-19.7,10.8-19.7,10.8s-16.2-1.3-23.5-8.4C-1,439.2-10.3,410.5-10.5,405.1z"/>
		<path class="st1" d="M-5.7,405.1c0,0,11.7-22,35.4-25.9c0.2,0.2,20.5-1.1,34.1,28.8c0.2,0-14.5,24-27.5,28.9c0,0-13,4.5-23.8-2.1
			C12.6,434.4-2.5,418.9-5.7,405.1z"/>
		<path class="st1" d="M29,431.4c0,0-11.3-1.9-14.5,0c0.2,0-3,2.6-2,3.3s9.1,4.9,16.4,3.5C29.2,438.2,29,431.4,29,431.4z"/>
		<path class="st1" d="M30.1,430.6l14.3,1.1c0,0-7.8,6.6-14.3,6.4C29,438.2,30.1,430.6,30.1,430.6z"/>
		<path class="st1" d="M13.5,386.8c0,0,7.2,1,6.6-1.9c0.3,0,0.1-3.3-2.6-2c-2.6,1.3-5.2,2.9-5.2,2.9S11.9,387.6,13.5,386.8z"/>
		<path class="st1" d="M30.3,380.2c0,0,2.3,4.6-2.9,5.3c-0.2,0-5.1,1.2-7.3,0.1c-0.1,0.2,0.8-4.1,0.7-4c-0.2,0.1,8.9-2.5,8.9-2.5
			L30.3,380.2z"/>
		<path class="st1" d="M40.8,383.5c0,0,1.3,3.3-5.6,2.6s-4.8-2.4-4.8-3.4c-0.1-1.1-0.8-3.5,2.1-3.5
			C35.4,379.1,40.4,380.8,40.8,383.5z"/>
		<path class="st1" d="M47.3,387.8c0,0-8.6,1.3-6.4-5.8c0.2,0.1,6.6,3.9,7.8,5C50,388.1,47.3,387.8,47.3,387.8z"/>
		<path class="st1" d="M88.4,405.1c0,0,12.7-33.1,19.9-36.9c7.1-3.9,18.4-4.3,21.4-1.3c0-0.2,2,0.4,10.2-1.1
			c8.2-1.5,12.5,0.8,16,7.1c3.5,6.3,8.4,29.4,8.4,37.2s-6.7,21.8-15.8,33.9c-9.1,12.1-19.7,10.8-19.7,10.8s-16.2-1.3-23.5-8.4
			C97.9,439.2,88.6,410.5,88.4,405.1z"/>
		<path class="st1" d="M93.1,405.1c0,0,11.7-22,35.4-25.9c0.2,0.2,20.5-1.1,34.1,28.8c0.2,0-14.5,24-27.5,28.9c0,0-13,4.5-23.8-2.1
			C111.4,434.4,96.3,418.9,93.1,405.1z"/>
		<path class="st1" d="M127.9,431.4c0,0-11.3-1.9-14.5,0c0.2,0-3,2.6-2,3.3c1.1,0.7,9.1,4.9,16.4,3.5
			C128.1,438.2,127.9,431.4,127.9,431.4z"/>
		<path class="st1" d="M129,430.6l14.3,1.1c0,0-7.8,6.6-14.3,6.4C127.9,438.2,129,430.6,129,430.6z"/>
		<path class="st1" d="M112.3,386.8c0,0,7.2,1,6.6-1.9c0.3,0,0.1-3.3-2.6-2c-2.6,1.3-5.2,2.9-5.2,2.9S110.8,387.6,112.3,386.8z"/>
		<path class="st1" d="M129.2,380.2c0,0,2.3,4.6-2.9,5.3c-0.2,0-5.1,1.2-7.3,0.1c-0.1,0.2,0.8-4.1,0.7-4c-0.2,0.1,8.9-2.5,8.9-2.5
			L129.2,380.2z"/>
		<path class="st1" d="M139.7,383.5c0,0,1.3,3.3-5.6,2.6c-7-0.7-4.8-2.4-4.8-3.4c-0.1-1.1-0.8-3.5,2.1-3.5
			C134.2,379.1,139.2,380.8,139.7,383.5z"/>
		<path class="st1" d="M146.1,387.8c0,0-8.6,1.3-6.4-5.8c0.2,0.1,6.6,3.9,7.8,5C148.8,388.1,146.1,387.8,146.1,387.8z"/>
		<path class="st1" d="M187.2,405.1c0,0,12.7-33.1,19.9-36.9c7.1-3.9,18.4-4.3,21.4-1.3c0-0.2,2,0.4,10.2-1.1
			c8.2-1.5,12.5,0.8,16,7.1s8.4,29.4,8.4,37.2s-6.7,21.8-15.8,33.9c-9.1,12.1-19.7,10.8-19.7,10.8s-16.2-1.3-23.5-8.4
			C196.7,439.2,187.4,410.5,187.2,405.1z"/>
		<path class="st1" d="M192,405.1c0,0,11.7-22,35.4-25.9c0.2,0.2,20.5-1.1,34.1,28.8c0.2,0-14.5,24-27.5,28.9c0,0-13,4.5-23.8-2.1
			C210.3,434.4,195.2,418.9,192,405.1z"/>
		<path class="st1" d="M226.8,431.4c0,0-11.3-1.9-14.5,0c0.2,0-3,2.6-2,3.3s9.1,4.9,16.4,3.5C227,438.2,226.8,431.4,226.8,431.4z"/>
		<path class="st1" d="M227.8,430.6l14.3,1.1c0,0-7.8,6.6-14.3,6.4C226.8,438.2,227.8,430.6,227.8,430.6z"/>
		<path class="st1" d="M211.2,386.8c0,0,7.2,1,6.6-1.9c0.3,0,0.1-3.3-2.6-2c-2.6,1.3-5.2,2.9-5.2,2.9S209.6,387.6,211.2,386.8z"/>
		<path class="st1" d="M228.1,380.2c0,0,2.3,4.6-2.9,5.3c-0.2,0-5.1,1.2-7.3,0.1c-0.1,0.2,0.8-4.1,0.7-4c-0.2,0.1,8.9-2.5,8.9-2.5
			L228.1,380.2z"/>
		<path class="st1" d="M238.6,383.5c0,0,1.3,3.3-5.6,2.6s-4.8-2.4-4.8-3.4c-0.1-1.1-0.8-3.5,2.1-3.5
			C233.1,379.1,238.1,380.8,238.6,383.5z"/>
		<path class="st1" d="M245,387.8c0,0-8.6,1.3-6.4-5.8c0.2,0.1,6.6,3.9,7.8,5C247.7,388.1,245,387.8,245,387.8z"/>
		<path class="st1" d="M286.1,405.1c0,0,12.7-33.1,19.9-36.9c7.1-3.9,18.4-4.3,21.4-1.3c0-0.2,2,0.4,10.2-1.1s12.5,0.8,16,7.1
			c3.5,6.3,8.4,29.4,8.4,37.2s-6.7,21.8-15.8,33.9c-9.1,12.1-19.7,10.8-19.7,10.8s-16.2-1.3-23.5-8.4
			C295.6,439.2,286.3,410.5,286.1,405.1z"/>
		<path class="st1" d="M290.9,405.1c0,0,11.7-22,35.4-25.9c0.2,0.2,20.5-1.1,34.1,28.8c0.2,0-14.5,24-27.5,28.9c0,0-13,4.5-23.8-2.1
			C309.2,434.4,294.1,418.9,290.9,405.1z"/>
		<path class="st1" d="M325.6,431.4c0,0-11.3-1.9-14.5,0c0.2,0-3,2.6-2,3.3c1.1,0.7,9.1,4.9,16.4,3.5
			C325.8,438.2,325.6,431.4,325.6,431.4z"/>
		<path class="st1" d="M326.7,430.6l14.3,1.1c0,0-7.8,6.6-14.3,6.4C325.6,438.2,326.7,430.6,326.7,430.6z"/>
		<path class="st1" d="M310.1,386.8c0,0,7.2,1,6.6-1.9c0.3,0,0.1-3.3-2.6-2c-2.6,1.3-5.2,2.9-5.2,2.9S308.5,387.6,310.1,386.8z"/>
		<path class="st1" d="M326.9,380.2c0,0,2.3,4.6-2.9,5.3c-0.2,0-5.1,1.2-7.3,0.1c-0.1,0.2,0.8-4.1,0.7-4c-0.2,0.1,8.9-2.5,8.9-2.5
			L326.9,380.2z"/>
		<path class="st1" d="M337.5,383.5c0,0,1.3,3.3-5.6,2.6c-7-0.7-4.8-2.4-4.8-3.4c-0.1-1.1-0.8-3.5,2.1-3.5
			C332,379.1,337,380.8,337.5,383.5z"/>
		<path class="st1" d="M343.9,387.8c0,0-8.6,1.3-6.4-5.8c0.2,0.1,6.6,3.9,7.8,5C346.6,388.1,343.9,387.8,343.9,387.8z"/>
		<path class="st1" d="M385,405.1c0,0,12.7-33.1,19.9-36.9c7.1-3.9,18.4-4.3,21.4-1.3c0-0.2,2,0.4,10.2-1.1s12.5,0.8,16,7.1
			c3.5,6.3,8.4,29.4,8.4,37.2s-6.7,21.8-15.8,33.9c-9.1,12.1-19.7,10.8-19.7,10.8s-16.2-1.3-23.5-8.4
			C394.5,439.2,385.2,410.5,385,405.1z"/>
		<path class="st1" d="M389.7,405.1c0,0,11.7-22,35.4-25.9c0.2,0.2,20.5-1.1,34.1,28.8c0.2,0-14.5,24-27.5,28.9c0,0-13,4.5-23.8-2.1
			C408.1,434.4,393,418.9,389.7,405.1z"/>
		<path class="st1" d="M424.5,431.4c0,0-11.3-1.9-14.5,0c0.2,0-3,2.6-2,3.3c1.1,0.7,9.1,4.9,16.4,3.5
			C424.7,438.2,424.5,431.4,424.5,431.4z"/>
		<path class="st1" d="M425.6,430.6l14.3,1.1c0,0-7.8,6.6-14.3,6.4C424.5,438.2,425.6,430.6,425.6,430.6z"/>
		<path class="st1" d="M408.9,386.8c0,0,7.2,1,6.6-1.9c0.3,0,0.1-3.3-2.6-2c-2.6,1.3-5.2,2.9-5.2,2.9S407.4,387.6,408.9,386.8z"/>
		<path class="st1" d="M425.8,380.2c0,0,2.3,4.6-2.9,5.3c-0.2,0-5.1,1.2-7.3,0.1c-0.1,0.2,0.8-4.1,0.7-4c-0.2,0.1,8.9-2.5,8.9-2.5
			L425.8,380.2z"/>
		<path class="st1" d="M436.3,383.5c0,0,1.3,3.3-5.6,2.6c-7-0.7-4.8-2.4-4.8-3.4c-0.1-1.1-0.8-3.5,2.1-3.5
			C430.8,379.1,435.9,380.8,436.3,383.5z"/>
		<path class="st1" d="M442.8,387.8c0,0-8.6,1.3-6.4-5.8c0.2,0.1,6.6,3.9,7.8,5C445.4,388.1,442.8,387.8,442.8,387.8z"/>
		<path class="st1" d="M483.8,405.1c0,0,12.7-33.1,19.9-36.9c7.1-3.9,18.4-4.3,21.4-1.3c0-0.2,2,0.4,10.2-1.1s12.5,0.8,16,7.1
			s8.4,29.4,8.4,37.2s-6.7,21.8-15.8,33.9c-9.1,12.1-19.7,10.8-19.7,10.8s-16.2-1.3-23.5-8.4C493.3,439.2,484.1,410.5,483.8,405.1z"
			/>
		<path class="st1" d="M488.6,405.1c0,0,11.7-22,35.4-25.9c0.2,0.2,20.5-1.1,34.1,28.8c0.2,0-14.5,24-27.5,28.9c0,0-13,4.5-23.8-2.1
			C507,434.4,491.8,418.9,488.6,405.1z"/>
		<path class="st1" d="M523.4,431.4c0,0-11.3-1.9-14.5,0c0.2,0-3,2.6-2,3.3c1.1,0.7,9.1,4.9,16.4,3.5
			C523.6,438.2,523.4,431.4,523.4,431.4z"/>
		<path class="st1" d="M524.4,430.6l14.3,1.1c0,0-7.8,6.6-14.3,6.4C523.4,438.2,524.4,430.6,524.4,430.6z"/>
		<path class="st1" d="M507.8,386.8c0,0,7.2,1,6.6-1.9c0.3,0,0.1-3.3-2.6-2c-2.6,1.3-5.2,2.9-5.2,2.9S506.3,387.6,507.8,386.8z"/>
		<path class="st1" d="M524.7,380.2c0,0,2.3,4.6-2.9,5.3c-0.2,0-5.1,1.2-7.3,0.1c-0.1,0.2,0.8-4.1,0.7-4c-0.2,0.1,8.9-2.5,8.9-2.5
			L524.7,380.2z"/>
		<path class="st1" d="M535.2,383.5c0,0,1.3,3.3-5.6,2.6c-7-0.7-4.8-2.4-4.8-3.4c-0.1-1.1-0.8-3.5,2.1-3.5
			C529.7,379.1,534.7,380.8,535.2,383.5z"/>
		<path class="st1" d="M541.7,387.8c0,0-8.6,1.3-6.4-5.8c0.2,0.1,6.6,3.9,7.8,5C544.3,388.1,541.7,387.8,541.7,387.8z"/>
		<path class="st1" d="M583,405.1c0,0,12.7-33.1,19.9-36.9s18.4-4.3,21.4-1.3c0-0.2,2,0.4,10.2-1.1s12.5,0.8,16,7.1
			c3.5,6.3,8.4,29.4,8.4,37.2s-6.7,21.8-15.8,33.9c-9.1,12.1-19.7,10.8-19.7,10.8s-16.2-1.3-23.5-8.4
			C592.5,439.2,583.2,410.5,583,405.1z"/>
		<path class="st1" d="M587.7,405.1c0,0,11.7-22,35.4-25.9c0.2,0.2,20.5-1.1,34.1,28.8c0.2,0-14.5,24-27.5,28.9c0,0-13,4.5-23.8-2.1
			C606,434.4,590.9,418.9,587.7,405.1z"/>
		<path class="st1" d="M622.5,431.4c0,0-11.3-1.9-14.5,0c0.2,0-3,2.6-2,3.3s9.1,4.9,16.4,3.5C622.7,438.2,622.5,431.4,622.5,431.4z"
			/>
		<path class="st1" d="M623.6,430.6l14.3,1.1c0,0-7.8,6.6-14.3,6.4C622.5,438.2,623.6,430.6,623.6,430.6z"/>
		<path class="st1" d="M606.9,386.8c0,0,7.2,1,6.6-1.9c0.3,0,0.1-3.3-2.6-2c-2.6,1.3-5.2,2.9-5.2,2.9S605.4,387.6,606.9,386.8z"/>
		<path class="st1" d="M623.8,380.2c0,0,2.3,4.6-2.9,5.3c-0.2,0-5.1,1.2-7.3,0.1c-0.1,0.2,0.8-4.1,0.7-4c-0.2,0.1,8.9-2.5,8.9-2.5
			L623.8,380.2z"/>
		<path class="st1" d="M634.3,383.5c0,0,1.3,3.3-5.6,2.6c-7-0.7-4.8-2.4-4.8-3.4c-0.1-1.1-0.8-3.5,2.1-3.5
			C628.8,379.1,633.8,380.8,634.3,383.5z"/>
		<path class="st1" d="M640.7,387.8c0,0-8.6,1.3-6.4-5.8c0.2,0.1,6.6,3.9,7.8,5C643.4,388.1,640.7,387.8,640.7,387.8z"/>
		<path class="st1" d="M681.8,405.1c0,0,12.7-33.1,19.9-36.9s18.4-4.3,21.4-1.3c0-0.2,2,0.4,10.2-1.1c8.2-1.5,12.5,0.8,16,7.1
			c3.5,6.3,8.4,29.4,8.4,37.2s-6.7,21.8-15.8,33.9s-19.7,10.8-19.7,10.8s-16.2-1.3-23.5-8.4C691.4,439.2,682,410.5,681.8,405.1z"/>
		<path class="st1" d="M686.6,405.1c0,0,11.7-22,35.4-25.9c0.2,0.2,20.5-1.1,34.1,28.8c0.2,0-14.5,24-27.5,28.9c0,0-13,4.5-23.8-2.1
			C704.9,434.4,689.8,418.9,686.6,405.1z"/>
		<path class="st1" d="M721.3,431.4c0,0-11.3-1.9-14.5,0c0.2,0-3,2.6-2,3.3c1.1,0.7,9.1,4.9,16.4,3.5
			C721.5,438.2,721.3,431.4,721.3,431.4z"/>
		<path class="st1" d="M722.4,430.6l14.3,1.1c0,0-7.8,6.6-14.3,6.4C721.3,438.2,722.4,430.6,722.4,430.6z"/>
		<path class="st1" d="M705.8,386.8c0,0,7.2,1,6.6-1.9c0.3,0,0.1-3.3-2.6-2c-2.6,1.3-5.2,2.9-5.2,2.9S704.2,387.6,705.8,386.8z"/>
		<path class="st1" d="M722.7,380.2c0,0,2.3,4.6-2.9,5.3c-0.2,0-5.1,1.2-7.3,0.1c-0.1,0.2,0.8-4.1,0.7-4c-0.2,0.1,8.9-2.5,8.9-2.5
			L722.7,380.2z"/>
		<path class="st1" d="M733.2,383.5c0,0,1.3,3.3-5.6,2.6s-4.8-2.4-4.8-3.4c-0.1-1.1-0.8-3.5,2.1-3.5
			C727.7,379.1,732.7,380.8,733.2,383.5z"/>
		<path class="st1" d="M739.6,387.8c0,0-8.6,1.3-6.4-5.8c0.2,0.1,6.6,3.9,7.8,5C742.3,388.1,739.6,387.8,739.6,387.8z"/>
	</g>
</g>
</svg>
